<svg xmlns="http://www.w3.org/2000/svg" viewBox="0 0 860 438" width="860" height="438">
<rect width="860" height="438" fill="#000000"/>
<text x="22" y="24" fill="rgba(255,255,255,1)" font-size="10" font-weight="700" font-family="Ableton Sans, Helvetica Neue, Helvetica, Arial" letter-spacing=".085em">CAPTURE</text>
<text x="214" y="24" fill="rgba(255,255,255,1)" font-size="10" font-weight="700" font-family="Ableton Sans, Helvetica Neue, Helvetica, Arial" letter-spacing=".085em">GRAIN</text>
<text x="22" y="128" fill="rgba(255,255,255,1)" font-size="10" font-weight="700" font-family="Ableton Sans, Helvetica Neue, Helvetica, Arial" letter-spacing=".085em">STUTTER</text>
<text x="342" y="128" fill="rgba(255,255,255,1)" font-size="10" font-weight="700" font-family="Ableton Sans, Helvetica Neue, Helvetica, Arial" letter-spacing=".085em">COMB</text>
<text x="598" y="128" fill="rgba(255,255,255,1)" font-size="10" font-weight="700" font-family="Ableton Sans, Helvetica Neue, Helvetica, Arial" letter-spacing=".085em">TAPE</text>
<text x="22" y="232" fill="rgba(255,255,255,1)" font-size="10" font-weight="700" font-family="Ableton Sans, Helvetica Neue, Helvetica, Arial" letter-spacing=".085em">RUIN</text>
<text x="342" y="232" fill="rgba(255,255,255,1)" font-size="10" font-weight="700" font-family="Ableton Sans, Helvetica Neue, Helvetica, Arial" letter-spacing=".085em">SWEEP</text>
<text x="790" y="232" fill="rgba(255,255,255,1)" font-size="10" font-weight="700" font-family="Ableton Sans, Helvetica Neue, Helvetica, Arial" letter-spacing=".085em">OUT</text>
<text x="22" y="336" fill="rgba(255,255,255,1)" font-size="10" font-weight="700" font-family="Ableton Sans, Helvetica Neue, Helvetica, Arial" letter-spacing=".085em">DELAY</text>
<text x="470" y="336" fill="rgba(255,255,255,1)" font-size="10" font-weight="700" font-family="Ableton Sans, Helvetica Neue, Helvetica, Arial" letter-spacing=".085em">SPACE</text>
<rect x="27.5" y="44.5" width="49" height="25" fill="rgba(255,255,255,1)"/>
<rect x="27.5" y="44.5" width="49" height="25" fill="none" stroke="rgba(255,255,255,1)" stroke-width="1"/>
<text x="52.00" y="61.00" fill="#000000" font-size="10" font-weight="700" text-anchor="middle" font-family="Ableton Sans, Helvetica Neue, Helvetica, Arial" letter-spacing="0.035em">FREEZE</text>
<circle cx="116.00" cy="57.00" r="23.50" fill="rgba(255,255,255,0.2)"/>
<circle cx="116.00" cy="57.00" r="23.50" fill="none" stroke="rgba(255,255,255,0.48)" stroke-width="1"/>
<line x1="101.15" y1="71.85" x2="103.63" y2="69.37" stroke="rgba(255,255,255,0.84)" stroke-width="1"/>
<line x1="116.00" y1="36.00" x2="116.00" y2="39.50" stroke="rgba(255,255,255,0.84)" stroke-width="1"/>
<line x1="130.85" y1="71.85" x2="128.37" y2="69.37" stroke="rgba(255,255,255,0.84)" stroke-width="1"/>
<line x1="114.10" y1="52.19" x2="110.48" y2="43.05" stroke="rgba(255,255,255,1)" stroke-width="1.6"/>
<circle cx="110.48" cy="43.05" r="1.8" fill="rgba(255,255,255,1)"/>
<text x="116.00" y="95" fill="rgba(255,255,255,1)" font-size="11" font-weight="700" text-anchor="middle" font-family="Ableton Sans, Helvetica Neue, Helvetica, Arial">250ms</text>
<text x="116.00" y="112" fill="rgba(255,255,255,0.84)" font-size="10" font-weight="700" text-anchor="middle" font-family="Ableton Sans, Helvetica Neue, Helvetica, Arial" letter-spacing="0.045em">LOOP</text>
<circle cx="180.00" cy="57.00" r="23.50" fill="rgba(255,255,255,0.2)"/>
<circle cx="180.00" cy="57.00" r="23.50" fill="none" stroke="rgba(255,255,255,0.48)" stroke-width="1"/>
<line x1="165.15" y1="71.85" x2="167.63" y2="69.37" stroke="rgba(255,255,255,0.84)" stroke-width="1"/>
<line x1="180.00" y1="36.00" x2="180.00" y2="39.50" stroke="rgba(255,255,255,0.84)" stroke-width="1"/>
<line x1="194.85" y1="71.85" x2="192.37" y2="69.37" stroke="rgba(255,255,255,0.84)" stroke-width="1"/>
<line x1="175.55" y1="54.37" x2="167.09" y2="49.36" stroke="rgba(255,255,255,1)" stroke-width="1.6"/>
<circle cx="167.09" cy="49.36" r="1.8" fill="rgba(255,255,255,1)"/>
<text x="180.00" y="95" fill="rgba(255,255,255,1)" font-size="11" font-weight="700" text-anchor="middle" font-family="Ableton Sans, Helvetica Neue, Helvetica, Arial">10ms</text>
<text x="180.00" y="112" fill="rgba(255,255,255,0.84)" font-size="10" font-weight="700" text-anchor="middle" font-family="Ableton Sans, Helvetica Neue, Helvetica, Arial" letter-spacing="0.045em">SEAM</text>
<rect x="219.5" y="44.5" width="49" height="25" fill="rgba(255,255,255,1)"/>
<rect x="219.5" y="44.5" width="49" height="25" fill="none" stroke="rgba(255,255,255,1)" stroke-width="1"/>
<text x="244.00" y="61.00" fill="#000000" font-size="10" font-weight="700" text-anchor="middle" font-family="Ableton Sans, Helvetica Neue, Helvetica, Arial" letter-spacing="0.035em">GRAIN</text>
<circle cx="308.00" cy="57.00" r="23.50" fill="rgba(255,255,255,0.2)"/>
<circle cx="308.00" cy="57.00" r="23.50" fill="none" stroke="rgba(255,255,255,0.48)" stroke-width="1"/>
<line x1="293.15" y1="71.85" x2="295.63" y2="69.37" stroke="rgba(255,255,255,0.84)" stroke-width="1"/>
<line x1="308.00" y1="36.00" x2="308.00" y2="39.50" stroke="rgba(255,255,255,0.84)" stroke-width="1"/>
<line x1="322.85" y1="71.85" x2="320.37" y2="69.37" stroke="rgba(255,255,255,0.84)" stroke-width="1"/>
<line x1="304.64" y1="53.07" x2="298.26" y2="45.59" stroke="rgba(255,255,255,1)" stroke-width="1.6"/>
<circle cx="298.26" cy="45.59" r="1.8" fill="rgba(255,255,255,1)"/>
<text x="308.00" y="95" fill="rgba(255,255,255,1)" font-size="11" font-weight="700" text-anchor="middle" font-family="Ableton Sans, Helvetica Neue, Helvetica, Arial">120ms</text>
<text x="308.00" y="112" fill="rgba(255,255,255,0.84)" font-size="10" font-weight="700" text-anchor="middle" font-family="Ableton Sans, Helvetica Neue, Helvetica, Arial" letter-spacing="0.045em">SIZE</text>
<circle cx="372.00" cy="57.00" r="23.50" fill="rgba(255,255,255,0.2)"/>
<circle cx="372.00" cy="57.00" r="23.50" fill="none" stroke="rgba(255,255,255,0.48)" stroke-width="1"/>
<line x1="357.15" y1="71.85" x2="359.63" y2="69.37" stroke="rgba(255,255,255,0.84)" stroke-width="1"/>
<line x1="372.00" y1="36.00" x2="372.00" y2="39.50" stroke="rgba(255,255,255,0.84)" stroke-width="1"/>
<line x1="386.85" y1="71.85" x2="384.37" y2="69.37" stroke="rgba(255,255,255,0.84)" stroke-width="1"/>
<line x1="371.51" y1="51.85" x2="370.59" y2="42.07" stroke="rgba(255,255,255,1)" stroke-width="1.6"/>
<circle cx="370.59" cy="42.07" r="1.8" fill="rgba(255,255,255,1)"/>
<text x="372.00" y="95" fill="rgba(255,255,255,1)" font-size="11" font-weight="700" text-anchor="middle" font-family="Ableton Sans, Helvetica Neue, Helvetica, Arial">12</text>
<text x="372.00" y="112" fill="rgba(255,255,255,0.84)" font-size="10" font-weight="700" text-anchor="middle" font-family="Ableton Sans, Helvetica Neue, Helvetica, Arial" letter-spacing="0.045em">DENSITY</text>
<circle cx="436.00" cy="57.00" r="23.50" fill="rgba(255,255,255,0.2)"/>
<circle cx="436.00" cy="57.00" r="23.50" fill="none" stroke="rgba(255,255,255,0.48)" stroke-width="1"/>
<line x1="421.15" y1="71.85" x2="423.63" y2="69.37" stroke="rgba(255,255,255,0.84)" stroke-width="1"/>
<line x1="436.00" y1="36.00" x2="436.00" y2="39.50" stroke="rgba(255,255,255,0.84)" stroke-width="1"/>
<line x1="450.85" y1="71.85" x2="448.37" y2="69.37" stroke="rgba(255,255,255,0.84)" stroke-width="1"/>
<line x1="440.78" y1="55.02" x2="449.86" y2="51.26" stroke="rgba(255,255,255,1)" stroke-width="1.6"/>
<circle cx="449.86" cy="51.26" r="1.8" fill="rgba(255,255,255,1)"/>
<text x="436.00" y="95" fill="rgba(255,255,255,1)" font-size="11" font-weight="700" text-anchor="middle" font-family="Ableton Sans, Helvetica Neue, Helvetica, Arial">0.50</text>
<text x="436.00" y="112" fill="rgba(255,255,255,0.84)" font-size="10" font-weight="700" text-anchor="middle" font-family="Ableton Sans, Helvetica Neue, Helvetica, Arial" letter-spacing="0.045em">POSITION</text>
<circle cx="500.00" cy="57.00" r="23.50" fill="rgba(255,255,255,0.2)"/>
<circle cx="500.00" cy="57.00" r="23.50" fill="none" stroke="rgba(255,255,255,0.48)" stroke-width="1"/>
<line x1="485.15" y1="71.85" x2="487.63" y2="69.37" stroke="rgba(255,255,255,0.84)" stroke-width="1"/>
<line x1="500.00" y1="36.00" x2="500.00" y2="39.50" stroke="rgba(255,255,255,0.84)" stroke-width="1"/>
<line x1="514.85" y1="71.85" x2="512.37" y2="69.37" stroke="rgba(255,255,255,0.84)" stroke-width="1"/>
<line x1="494.99" y1="55.71" x2="485.47" y2="53.27" stroke="rgba(255,255,255,1)" stroke-width="1.6"/>
<circle cx="485.47" cy="53.27" r="1.8" fill="rgba(255,255,255,1)"/>
<text x="500.00" y="95" fill="rgba(255,255,255,1)" font-size="11" font-weight="700" text-anchor="middle" font-family="Ableton Sans, Helvetica Neue, Helvetica, Arial">0.15</text>
<text x="500.00" y="112" fill="rgba(255,255,255,0.84)" font-size="10" font-weight="700" text-anchor="middle" font-family="Ableton Sans, Helvetica Neue, Helvetica, Arial" letter-spacing="0.045em">SPRAY</text>
<circle cx="564.00" cy="57.00" r="23.50" fill="rgba(255,255,255,0.2)"/>
<circle cx="564.00" cy="57.00" r="23.50" fill="none" stroke="rgba(255,255,255,0.48)" stroke-width="1"/>
<line x1="549.15" y1="71.85" x2="551.63" y2="69.37" stroke="rgba(255,255,255,0.84)" stroke-width="1"/>
<line x1="564.00" y1="36.00" x2="564.00" y2="39.50" stroke="rgba(255,255,255,0.84)" stroke-width="1"/>
<line x1="578.85" y1="71.85" x2="576.37" y2="69.37" stroke="rgba(255,255,255,0.84)" stroke-width="1"/>
<line x1="559.82" y1="53.96" x2="551.86" y2="48.18" stroke="rgba(255,255,255,1)" stroke-width="1.6"/>
<circle cx="551.86" cy="48.18" r="1.8" fill="rgba(255,255,255,1)"/>
<text x="564.00" y="95" fill="rgba(255,255,255,1)" font-size="11" font-weight="700" text-anchor="middle" font-family="Ableton Sans, Helvetica Neue, Helvetica, Arial">1.00x</text>
<text x="564.00" y="112" fill="rgba(255,255,255,0.84)" font-size="10" font-weight="700" text-anchor="middle" font-family="Ableton Sans, Helvetica Neue, Helvetica, Arial" letter-spacing="0.045em">RATE</text>
<circle cx="628.00" cy="57.00" r="23.50" fill="rgba(255,255,255,0.2)"/>
<circle cx="628.00" cy="57.00" r="23.50" fill="none" stroke="rgba(255,255,255,0.48)" stroke-width="1"/>
<line x1="613.15" y1="71.85" x2="615.63" y2="69.37" stroke="rgba(255,255,255,0.84)" stroke-width="1"/>
<line x1="628.00" y1="36.00" x2="628.00" y2="39.50" stroke="rgba(255,255,255,0.84)" stroke-width="1"/>
<line x1="642.85" y1="71.85" x2="640.37" y2="69.37" stroke="rgba(255,255,255,0.84)" stroke-width="1"/>
<line x1="629.21" y1="51.97" x2="631.50" y2="42.41" stroke="rgba(255,255,255,1)" stroke-width="1.6"/>
<circle cx="631.50" cy="42.41" r="1.8" fill="rgba(255,255,255,1)"/>
<text x="628.00" y="95" fill="rgba(255,255,255,1)" font-size="11" font-weight="700" text-anchor="middle" font-family="Ableton Sans, Helvetica Neue, Helvetica, Arial">0.60</text>
<text x="628.00" y="112" fill="rgba(255,255,255,0.84)" font-size="10" font-weight="700" text-anchor="middle" font-family="Ableton Sans, Helvetica Neue, Helvetica, Arial" letter-spacing="0.045em">SPREAD</text>
<circle cx="692.00" cy="57.00" r="23.50" fill="rgba(255,255,255,0.2)"/>
<circle cx="692.00" cy="57.00" r="23.50" fill="none" stroke="rgba(255,255,255,0.48)" stroke-width="1"/>
<line x1="677.15" y1="71.85" x2="679.63" y2="69.37" stroke="rgba(255,255,255,0.84)" stroke-width="1"/>
<line x1="692.00" y1="36.00" x2="692.00" y2="39.50" stroke="rgba(255,255,255,0.84)" stroke-width="1"/>
<line x1="706.85" y1="71.85" x2="704.37" y2="69.37" stroke="rgba(255,255,255,0.84)" stroke-width="1"/>
<line x1="687.22" y1="55.02" x2="678.14" y2="51.26" stroke="rgba(255,255,255,1)" stroke-width="1.6"/>
<circle cx="678.14" cy="51.26" r="1.8" fill="rgba(255,255,255,1)"/>
<text x="692.00" y="95" fill="rgba(255,255,255,1)" font-size="11" font-weight="700" text-anchor="middle" font-family="Ableton Sans, Helvetica Neue, Helvetica, Arial">0.25</text>
<text x="692.00" y="112" fill="rgba(255,255,255,0.84)" font-size="10" font-weight="700" text-anchor="middle" font-family="Ableton Sans, Helvetica Neue, Helvetica, Arial" letter-spacing="0.045em">REVERSE</text>
<circle cx="756.00" cy="57.00" r="23.50" fill="rgba(255,255,255,0.2)"/>
<circle cx="756.00" cy="57.00" r="23.50" fill="none" stroke="rgba(255,255,255,0.48)" stroke-width="1"/>
<line x1="741.15" y1="71.85" x2="743.63" y2="69.37" stroke="rgba(255,255,255,0.84)" stroke-width="1"/>
<line x1="756.00" y1="36.00" x2="756.00" y2="39.50" stroke="rgba(255,255,255,0.84)" stroke-width="1"/>
<line x1="770.85" y1="71.85" x2="768.37" y2="69.37" stroke="rgba(255,255,255,0.84)" stroke-width="1"/>
<line x1="761.11" y1="56.19" x2="770.82" y2="54.65" stroke="rgba(255,255,255,1)" stroke-width="1.6"/>
<circle cx="770.82" cy="54.65" r="1.8" fill="rgba(255,255,255,1)"/>
<text x="756.00" y="95" fill="rgba(255,255,255,1)" font-size="11" font-weight="700" text-anchor="middle" font-family="Ableton Sans, Helvetica Neue, Helvetica, Arial">1.00</text>
<text x="756.00" y="112" fill="rgba(255,255,255,0.84)" font-size="10" font-weight="700" text-anchor="middle" font-family="Ableton Sans, Helvetica Neue, Helvetica, Arial" letter-spacing="0.045em">MIX</text>
<rect x="27.5" y="148.5" width="49" height="25" fill="rgba(255,255,255,1)"/>
<rect x="27.5" y="148.5" width="49" height="25" fill="none" stroke="rgba(255,255,255,1)" stroke-width="1"/>
<text x="52.00" y="165.00" fill="#000000" font-size="10" font-weight="700" text-anchor="middle" font-family="Ableton Sans, Helvetica Neue, Helvetica, Arial" letter-spacing="0.035em">STUTTER</text>
<circle cx="116.00" cy="161.00" r="23.50" fill="rgba(255,255,255,0.2)"/>
<circle cx="116.00" cy="161.00" r="23.50" fill="none" stroke="rgba(255,255,255,0.48)" stroke-width="1"/>
<line x1="101.15" y1="175.85" x2="103.63" y2="173.37" stroke="rgba(255,255,255,0.84)" stroke-width="1"/>
<line x1="116.00" y1="140.00" x2="116.00" y2="143.50" stroke="rgba(255,255,255,0.84)" stroke-width="1"/>
<line x1="130.85" y1="175.85" x2="128.37" y2="173.37" stroke="rgba(255,255,255,0.84)" stroke-width="1"/>
<line x1="113.65" y1="156.39" x2="109.19" y2="147.63" stroke="rgba(255,255,255,1)" stroke-width="1.6"/>
<circle cx="109.19" cy="147.63" r="1.8" fill="rgba(255,255,255,1)"/>
<text x="116.00" y="199" fill="rgba(255,255,255,1)" font-size="11" font-weight="700" text-anchor="middle" font-family="Ableton Sans, Helvetica Neue, Helvetica, Arial">90ms</text>
<text x="116.00" y="216" fill="rgba(255,255,255,0.84)" font-size="10" font-weight="700" text-anchor="middle" font-family="Ableton Sans, Helvetica Neue, Helvetica, Arial" letter-spacing="0.045em">SIZE</text>
<circle cx="180.00" cy="161.00" r="23.50" fill="rgba(255,255,255,0.2)"/>
<circle cx="180.00" cy="161.00" r="23.50" fill="none" stroke="rgba(255,255,255,0.48)" stroke-width="1"/>
<line x1="165.15" y1="175.85" x2="167.63" y2="173.37" stroke="rgba(255,255,255,0.84)" stroke-width="1"/>
<line x1="180.00" y1="140.00" x2="180.00" y2="143.50" stroke="rgba(255,255,255,0.84)" stroke-width="1"/>
<line x1="194.85" y1="175.85" x2="192.37" y2="173.37" stroke="rgba(255,255,255,0.84)" stroke-width="1"/>
<line x1="176.64" y1="157.07" x2="170.26" y2="149.59" stroke="rgba(255,255,255,1)" stroke-width="1.6"/>
<circle cx="170.26" cy="149.59" r="1.8" fill="rgba(255,255,255,1)"/>
<text x="180.00" y="199" fill="rgba(255,255,255,1)" font-size="11" font-weight="700" text-anchor="middle" font-family="Ableton Sans, Helvetica Neue, Helvetica, Arial">4.00</text>
<text x="180.00" y="216" fill="rgba(255,255,255,0.84)" font-size="10" font-weight="700" text-anchor="middle" font-family="Ableton Sans, Helvetica Neue, Helvetica, Arial" letter-spacing="0.045em">RATE</text>
<circle cx="244.00" cy="161.00" r="23.50" fill="rgba(255,255,255,0.2)"/>
<circle cx="244.00" cy="161.00" r="23.50" fill="none" stroke="rgba(255,255,255,0.48)" stroke-width="1"/>
<line x1="229.15" y1="175.85" x2="231.63" y2="173.37" stroke="rgba(255,255,255,0.84)" stroke-width="1"/>
<line x1="244.00" y1="140.00" x2="244.00" y2="143.50" stroke="rgba(255,255,255,0.84)" stroke-width="1"/>
<line x1="258.85" y1="175.85" x2="256.37" y2="173.37" stroke="rgba(255,255,255,0.84)" stroke-width="1"/>
<line x1="239.82" y1="157.96" x2="231.86" y2="152.18" stroke="rgba(255,255,255,1)" stroke-width="1.6"/>
<circle cx="231.86" cy="152.18" r="1.8" fill="rgba(255,255,255,1)"/>
<text x="244.00" y="199" fill="rgba(255,255,255,1)" font-size="11" font-weight="700" text-anchor="middle" font-family="Ableton Sans, Helvetica Neue, Helvetica, Arial">0.35</text>
<text x="244.00" y="216" fill="rgba(255,255,255,0.84)" font-size="10" font-weight="700" text-anchor="middle" font-family="Ableton Sans, Helvetica Neue, Helvetica, Arial" letter-spacing="0.045em">JUMP</text>
<circle cx="308.00" cy="161.00" r="23.50" fill="rgba(255,255,255,0.2)"/>
<circle cx="308.00" cy="161.00" r="23.50" fill="none" stroke="rgba(255,255,255,0.48)" stroke-width="1"/>
<line x1="293.15" y1="175.85" x2="295.63" y2="173.37" stroke="rgba(255,255,255,0.84)" stroke-width="1"/>
<line x1="308.00" y1="140.00" x2="308.00" y2="143.50" stroke="rgba(255,255,255,0.84)" stroke-width="1"/>
<line x1="322.85" y1="175.85" x2="320.37" y2="173.37" stroke="rgba(255,255,255,0.84)" stroke-width="1"/>
<line x1="312.92" y1="162.60" x2="322.27" y2="165.64" stroke="rgba(255,255,255,1)" stroke-width="1.6"/>
<circle cx="322.27" cy="165.64" r="1.8" fill="rgba(255,255,255,1)"/>
<text x="308.00" y="199" fill="rgba(255,255,255,1)" font-size="11" font-weight="700" text-anchor="middle" font-family="Ableton Sans, Helvetica Neue, Helvetica, Arial">1.00</text>
<text x="308.00" y="216" fill="rgba(255,255,255,0.84)" font-size="10" font-weight="700" text-anchor="middle" font-family="Ableton Sans, Helvetica Neue, Helvetica, Arial" letter-spacing="0.045em">MIX</text>
<rect x="347.5" y="148.5" width="49" height="25" fill="rgba(255,255,255,1)"/>
<rect x="347.5" y="148.5" width="49" height="25" fill="none" stroke="rgba(255,255,255,1)" stroke-width="1"/>
<text x="372.00" y="165.00" fill="#000000" font-size="10" font-weight="700" text-anchor="middle" font-family="Ableton Sans, Helvetica Neue, Helvetica, Arial" letter-spacing="0.035em">COMB</text>
<circle cx="436.00" cy="161.00" r="23.50" fill="rgba(255,255,255,0.2)"/>
<circle cx="436.00" cy="161.00" r="23.50" fill="none" stroke="rgba(255,255,255,0.48)" stroke-width="1"/>
<line x1="421.15" y1="175.85" x2="423.63" y2="173.37" stroke="rgba(255,255,255,0.84)" stroke-width="1"/>
<line x1="436.00" y1="140.00" x2="436.00" y2="143.50" stroke="rgba(255,255,255,0.84)" stroke-width="1"/>
<line x1="450.85" y1="175.85" x2="448.37" y2="173.37" stroke="rgba(255,255,255,0.84)" stroke-width="1"/>
<line x1="434.79" y1="155.97" x2="432.50" y2="146.41" stroke="rgba(255,255,255,1)" stroke-width="1.6"/>
<circle cx="432.50" cy="146.41" r="1.8" fill="rgba(255,255,255,1)"/>
<text x="436.00" y="199" fill="rgba(255,255,255,1)" font-size="11" font-weight="700" text-anchor="middle" font-family="Ableton Sans, Helvetica Neue, Helvetica, Arial">220</text>
<text x="436.00" y="216" fill="rgba(255,255,255,0.84)" font-size="10" font-weight="700" text-anchor="middle" font-family="Ableton Sans, Helvetica Neue, Helvetica, Arial" letter-spacing="0.045em">TUNE</text>
<circle cx="500.00" cy="161.00" r="23.50" fill="rgba(255,255,255,0.2)"/>
<circle cx="500.00" cy="161.00" r="23.50" fill="none" stroke="rgba(255,255,255,0.48)" stroke-width="1"/>
<line x1="485.15" y1="175.85" x2="487.63" y2="173.37" stroke="rgba(255,255,255,0.84)" stroke-width="1"/>
<line x1="500.00" y1="140.00" x2="500.00" y2="143.50" stroke="rgba(255,255,255,0.84)" stroke-width="1"/>
<line x1="514.85" y1="175.85" x2="512.37" y2="173.37" stroke="rgba(255,255,255,0.84)" stroke-width="1"/>
<line x1="502.35" y1="156.39" x2="506.81" y2="147.63" stroke="rgba(255,255,255,1)" stroke-width="1.6"/>
<circle cx="506.81" cy="147.63" r="1.8" fill="rgba(255,255,255,1)"/>
<text x="500.00" y="199" fill="rgba(255,255,255,1)" font-size="11" font-weight="700" text-anchor="middle" font-family="Ableton Sans, Helvetica Neue, Helvetica, Arial">0.60</text>
<text x="500.00" y="216" fill="rgba(255,255,255,0.84)" font-size="10" font-weight="700" text-anchor="middle" font-family="Ableton Sans, Helvetica Neue, Helvetica, Arial" letter-spacing="0.045em">FEEDBACK</text>
<circle cx="564.00" cy="161.00" r="23.50" fill="rgba(255,255,255,0.2)"/>
<circle cx="564.00" cy="161.00" r="23.50" fill="none" stroke="rgba(255,255,255,0.48)" stroke-width="1"/>
<line x1="549.15" y1="175.85" x2="551.63" y2="173.37" stroke="rgba(255,255,255,0.84)" stroke-width="1"/>
<line x1="564.00" y1="140.00" x2="564.00" y2="143.50" stroke="rgba(255,255,255,0.84)" stroke-width="1"/>
<line x1="578.85" y1="175.85" x2="576.37" y2="173.37" stroke="rgba(255,255,255,0.84)" stroke-width="1"/>
<line x1="564.00" y1="155.83" x2="564.00" y2="146.00" stroke="rgba(255,255,255,1)" stroke-width="1.6"/>
<circle cx="564.00" cy="146.00" r="1.8" fill="rgba(255,255,255,1)"/>
<text x="564.00" y="199" fill="rgba(255,255,255,1)" font-size="11" font-weight="700" text-anchor="middle" font-family="Ableton Sans, Helvetica Neue, Helvetica, Arial">0.50</text>
<text x="564.00" y="216" fill="rgba(255,255,255,0.84)" font-size="10" font-weight="700" text-anchor="middle" font-family="Ableton Sans, Helvetica Neue, Helvetica, Arial" letter-spacing="0.045em">MIX</text>
<rect x="603.5" y="148.5" width="49" height="25" fill="rgba(255,255,255,1)"/>
<rect x="603.5" y="148.5" width="49" height="25" fill="none" stroke="rgba(255,255,255,1)" stroke-width="1"/>
<text x="628.00" y="165.00" fill="#000000" font-size="10" font-weight="700" text-anchor="middle" font-family="Ableton Sans, Helvetica Neue, Helvetica, Arial" letter-spacing="0.035em">TAPE</text>
<circle cx="692.00" cy="161.00" r="23.50" fill="rgba(255,255,255,0.2)"/>
<circle cx="692.00" cy="161.00" r="23.50" fill="none" stroke="rgba(255,255,255,0.48)" stroke-width="1"/>
<line x1="677.15" y1="175.85" x2="679.63" y2="173.37" stroke="rgba(255,255,255,0.84)" stroke-width="1"/>
<line x1="692.00" y1="140.00" x2="692.00" y2="143.50" stroke="rgba(255,255,255,0.84)" stroke-width="1"/>
<line x1="706.85" y1="175.85" x2="704.37" y2="173.37" stroke="rgba(255,255,255,0.84)" stroke-width="1"/>
<line x1="694.77" y1="156.63" x2="700.04" y2="148.34" stroke="rgba(255,255,255,1)" stroke-width="1.6"/>
<circle cx="700.04" cy="148.34" r="1.8" fill="rgba(255,255,255,1)"/>
<text x="692.00" y="199" fill="rgba(255,255,255,1)" font-size="11" font-weight="700" text-anchor="middle" font-family="Ableton Sans, Helvetica Neue, Helvetica, Arial">1.00x</text>
<text x="692.00" y="216" fill="rgba(255,255,255,0.84)" font-size="10" font-weight="700" text-anchor="middle" font-family="Ableton Sans, Helvetica Neue, Helvetica, Arial" letter-spacing="0.045em">SPEED</text>
<circle cx="756.00" cy="161.00" r="23.50" fill="rgba(255,255,255,0.2)"/>
<circle cx="756.00" cy="161.00" r="23.50" fill="none" stroke="rgba(255,255,255,0.48)" stroke-width="1"/>
<line x1="741.15" y1="175.85" x2="743.63" y2="173.37" stroke="rgba(255,255,255,0.84)" stroke-width="1"/>
<line x1="756.00" y1="140.00" x2="756.00" y2="143.50" stroke="rgba(255,255,255,0.84)" stroke-width="1"/>
<line x1="770.85" y1="175.85" x2="768.37" y2="173.37" stroke="rgba(255,255,255,0.84)" stroke-width="1"/>
<line x1="750.89" y1="160.19" x2="741.18" y2="158.65" stroke="rgba(255,255,255,1)" stroke-width="1.6"/>
<circle cx="741.18" cy="158.65" r="1.8" fill="rgba(255,255,255,1)"/>
<text x="756.00" y="199" fill="rgba(255,255,255,1)" font-size="11" font-weight="700" text-anchor="middle" font-family="Ableton Sans, Helvetica Neue, Helvetica, Arial">0.12</text>
<text x="756.00" y="216" fill="rgba(255,255,255,0.84)" font-size="10" font-weight="700" text-anchor="middle" font-family="Ableton Sans, Helvetica Neue, Helvetica, Arial" letter-spacing="0.045em">WOBBLE</text>
<circle cx="820.00" cy="161.00" r="23.50" fill="rgba(255,255,255,0.2)"/>
<circle cx="820.00" cy="161.00" r="23.50" fill="none" stroke="rgba(255,255,255,0.48)" stroke-width="1"/>
<line x1="805.15" y1="175.85" x2="807.63" y2="173.37" stroke="rgba(255,255,255,0.84)" stroke-width="1"/>
<line x1="820.00" y1="140.00" x2="820.00" y2="143.50" stroke="rgba(255,255,255,0.84)" stroke-width="1"/>
<line x1="834.85" y1="175.85" x2="832.37" y2="173.37" stroke="rgba(255,255,255,0.84)" stroke-width="1"/>
<line x1="823.66" y1="164.66" x2="830.61" y2="171.61" stroke="rgba(255,255,255,1)" stroke-width="1.6"/>
<circle cx="830.61" cy="171.61" r="1.8" fill="rgba(255,255,255,1)"/>
<text x="820.00" y="199" fill="rgba(255,255,255,1)" font-size="11" font-weight="700" text-anchor="middle" font-family="Ableton Sans, Helvetica Neue, Helvetica, Arial">1.00</text>
<text x="820.00" y="216" fill="rgba(255,255,255,0.84)" font-size="10" font-weight="700" text-anchor="middle" font-family="Ableton Sans, Helvetica Neue, Helvetica, Arial" letter-spacing="0.045em">MIX</text>
<circle cx="52.00" cy="265.00" r="23.50" fill="rgba(255,255,255,0.2)"/>
<circle cx="52.00" cy="265.00" r="23.50" fill="none" stroke="rgba(255,255,255,0.48)" stroke-width="1"/>
<line x1="37.15" y1="279.85" x2="39.63" y2="277.37" stroke="rgba(255,255,255,0.84)" stroke-width="1"/>
<line x1="52.00" y1="244.00" x2="52.00" y2="247.50" stroke="rgba(255,255,255,0.84)" stroke-width="1"/>
<line x1="66.85" y1="279.85" x2="64.37" y2="277.37" stroke="rgba(255,255,255,0.84)" stroke-width="1"/>
<line x1="55.36" y1="261.07" x2="61.74" y2="253.59" stroke="rgba(255,255,255,1)" stroke-width="1.6"/>
<circle cx="61.74" cy="253.59" r="1.8" fill="rgba(255,255,255,1)"/>
<text x="52.00" y="303" fill="rgba(255,255,255,1)" font-size="11" font-weight="700" text-anchor="middle" font-family="Ableton Sans, Helvetica Neue, Helvetica, Arial">0.00</text>
<text x="52.00" y="320" fill="rgba(255,255,255,0.84)" font-size="10" font-weight="700" text-anchor="middle" font-family="Ableton Sans, Helvetica Neue, Helvetica, Arial" letter-spacing="0.045em">MODE</text>
<circle cx="116.00" cy="265.00" r="23.50" fill="rgba(255,255,255,0.2)"/>
<circle cx="116.00" cy="265.00" r="23.50" fill="none" stroke="rgba(255,255,255,0.48)" stroke-width="1"/>
<line x1="101.15" y1="279.85" x2="103.63" y2="277.37" stroke="rgba(255,255,255,0.84)" stroke-width="1"/>
<line x1="116.00" y1="244.00" x2="116.00" y2="247.50" stroke="rgba(255,255,255,0.84)" stroke-width="1"/>
<line x1="130.85" y1="279.85" x2="128.37" y2="277.37" stroke="rgba(255,255,255,0.84)" stroke-width="1"/>
<line x1="113.65" y1="260.39" x2="109.19" y2="251.63" stroke="rgba(255,255,255,1)" stroke-width="1.6"/>
<circle cx="109.19" cy="251.63" r="1.8" fill="rgba(255,255,255,1)"/>
<text x="116.00" y="303" fill="rgba(255,255,255,1)" font-size="11" font-weight="700" text-anchor="middle" font-family="Ableton Sans, Helvetica Neue, Helvetica, Arial">0.35</text>
<text x="116.00" y="320" fill="rgba(255,255,255,0.84)" font-size="10" font-weight="700" text-anchor="middle" font-family="Ableton Sans, Helvetica Neue, Helvetica, Arial" letter-spacing="0.045em">DRIVE</text>
<circle cx="180.00" cy="265.00" r="23.50" fill="rgba(255,255,255,0.2)"/>
<circle cx="180.00" cy="265.00" r="23.50" fill="none" stroke="rgba(255,255,255,0.48)" stroke-width="1"/>
<line x1="165.15" y1="279.85" x2="167.63" y2="277.37" stroke="rgba(255,255,255,0.84)" stroke-width="1"/>
<line x1="180.00" y1="244.00" x2="180.00" y2="247.50" stroke="rgba(255,255,255,0.84)" stroke-width="1"/>
<line x1="194.85" y1="279.85" x2="192.37" y2="277.37" stroke="rgba(255,255,255,0.84)" stroke-width="1"/>
<line x1="181.21" y1="259.97" x2="183.50" y2="250.41" stroke="rgba(255,255,255,1)" stroke-width="1.6"/>
<circle cx="183.50" cy="250.41" r="1.8" fill="rgba(255,255,255,1)"/>
<text x="180.00" y="303" fill="rgba(255,255,255,1)" font-size="11" font-weight="700" text-anchor="middle" font-family="Ableton Sans, Helvetica Neue, Helvetica, Arial">0.00</text>
<text x="180.00" y="320" fill="rgba(255,255,255,0.84)" font-size="10" font-weight="700" text-anchor="middle" font-family="Ableton Sans, Helvetica Neue, Helvetica, Arial" letter-spacing="0.045em">FOLD</text>
<circle cx="244.00" cy="265.00" r="23.50" fill="rgba(255,255,255,0.2)"/>
<circle cx="244.00" cy="265.00" r="23.50" fill="none" stroke="rgba(255,255,255,0.48)" stroke-width="1"/>
<line x1="229.15" y1="279.85" x2="231.63" y2="277.37" stroke="rgba(255,255,255,0.84)" stroke-width="1"/>
<line x1="244.00" y1="244.00" x2="244.00" y2="247.50" stroke="rgba(255,255,255,0.84)" stroke-width="1"/>
<line x1="258.85" y1="279.85" x2="256.37" y2="277.37" stroke="rgba(255,255,255,0.84)" stroke-width="1"/>
<line x1="239.82" y1="261.96" x2="231.86" y2="256.18" stroke="rgba(255,255,255,1)" stroke-width="1.6"/>
<circle cx="231.86" cy="256.18" r="1.8" fill="rgba(255,255,255,1)"/>
<text x="244.00" y="303" fill="rgba(255,255,255,1)" font-size="11" font-weight="700" text-anchor="middle" font-family="Ableton Sans, Helvetica Neue, Helvetica, Arial">0.00</text>
<text x="244.00" y="320" fill="rgba(255,255,255,0.84)" font-size="10" font-weight="700" text-anchor="middle" font-family="Ableton Sans, Helvetica Neue, Helvetica, Arial" letter-spacing="0.045em">CRUSH</text>
<circle cx="308.00" cy="265.00" r="23.50" fill="rgba(255,255,255,0.2)"/>
<circle cx="308.00" cy="265.00" r="23.50" fill="none" stroke="rgba(255,255,255,0.48)" stroke-width="1"/>
<line x1="293.15" y1="279.85" x2="295.63" y2="277.37" stroke="rgba(255,255,255,0.84)" stroke-width="1"/>
<line x1="308.00" y1="244.00" x2="308.00" y2="247.50" stroke="rgba(255,255,255,0.84)" stroke-width="1"/>
<line x1="322.85" y1="279.85" x2="320.37" y2="277.37" stroke="rgba(255,255,255,0.84)" stroke-width="1"/>
<line x1="302.85" y1="265.41" x2="293.05" y2="266.18" stroke="rgba(255,255,255,1)" stroke-width="1.6"/>
<circle cx="293.05" cy="266.18" r="1.8" fill="rgba(255,255,255,1)"/>
<text x="308.00" y="303" fill="rgba(255,255,255,1)" font-size="11" font-weight="700" text-anchor="middle" font-family="Ableton Sans, Helvetica Neue, Helvetica, Arial">0.00</text>
<text x="308.00" y="320" fill="rgba(255,255,255,0.84)" font-size="10" font-weight="700" text-anchor="middle" font-family="Ableton Sans, Helvetica Neue, Helvetica, Arial" letter-spacing="0.045em">RING</text>
<rect x="347.5" y="252.5" width="49" height="25" fill="none" stroke="rgba(255,255,255,0.48)" stroke-width="1"/>
<text x="372.00" y="269.00" fill="rgba(255,255,255,1)" font-size="10" font-weight="700" text-anchor="middle" font-family="Ableton Sans, Helvetica Neue, Helvetica, Arial" letter-spacing="0.035em">SWEEP</text>
<circle cx="436.00" cy="265.00" r="23.50" fill="rgba(255,255,255,0.2)"/>
<circle cx="436.00" cy="265.00" r="23.50" fill="none" stroke="rgba(255,255,255,0.48)" stroke-width="1"/>
<line x1="421.15" y1="279.85" x2="423.63" y2="277.37" stroke="rgba(255,255,255,0.84)" stroke-width="1"/>
<line x1="436.00" y1="244.00" x2="436.00" y2="247.50" stroke="rgba(255,255,255,0.84)" stroke-width="1"/>
<line x1="450.85" y1="279.85" x2="448.37" y2="277.37" stroke="rgba(255,255,255,0.84)" stroke-width="1"/>
<line x1="431.82" y1="261.96" x2="423.86" y2="256.18" stroke="rgba(255,255,255,1)" stroke-width="1.6"/>
<circle cx="423.86" cy="256.18" r="1.8" fill="rgba(255,255,255,1)"/>
<text x="436.00" y="303" fill="rgba(255,255,255,1)" font-size="11" font-weight="700" text-anchor="middle" font-family="Ableton Sans, Helvetica Neue, Helvetica, Arial">0.80</text>
<text x="436.00" y="320" fill="rgba(255,255,255,0.84)" font-size="10" font-weight="700" text-anchor="middle" font-family="Ableton Sans, Helvetica Neue, Helvetica, Arial" letter-spacing="0.045em">RATE</text>
<circle cx="500.00" cy="265.00" r="23.50" fill="rgba(255,255,255,0.2)"/>
<circle cx="500.00" cy="265.00" r="23.50" fill="none" stroke="rgba(255,255,255,0.48)" stroke-width="1"/>
<line x1="485.15" y1="279.85" x2="487.63" y2="277.37" stroke="rgba(255,255,255,0.84)" stroke-width="1"/>
<line x1="500.00" y1="244.00" x2="500.00" y2="247.50" stroke="rgba(255,255,255,0.84)" stroke-width="1"/>
<line x1="514.85" y1="279.85" x2="512.37" y2="277.37" stroke="rgba(255,255,255,0.84)" stroke-width="1"/>
<line x1="498.79" y1="259.97" x2="496.50" y2="250.41" stroke="rgba(255,255,255,1)" stroke-width="1.6"/>
<circle cx="496.50" cy="250.41" r="1.8" fill="rgba(255,255,255,1)"/>
<text x="500.00" y="303" fill="rgba(255,255,255,1)" font-size="11" font-weight="700" text-anchor="middle" font-family="Ableton Sans, Helvetica Neue, Helvetica, Arial">0.40</text>
<text x="500.00" y="320" fill="rgba(255,255,255,0.84)" font-size="10" font-weight="700" text-anchor="middle" font-family="Ableton Sans, Helvetica Neue, Helvetica, Arial" letter-spacing="0.045em">DEPTH</text>
<circle cx="564.00" cy="265.00" r="23.50" fill="rgba(255,255,255,0.2)"/>
<circle cx="564.00" cy="265.00" r="23.50" fill="none" stroke="rgba(255,255,255,0.48)" stroke-width="1"/>
<line x1="549.15" y1="279.85" x2="551.63" y2="277.37" stroke="rgba(255,255,255,0.84)" stroke-width="1"/>
<line x1="564.00" y1="244.00" x2="564.00" y2="247.50" stroke="rgba(255,255,255,0.84)" stroke-width="1"/>
<line x1="578.85" y1="279.85" x2="576.37" y2="277.37" stroke="rgba(255,255,255,0.84)" stroke-width="1"/>
<line x1="565.21" y1="259.97" x2="567.50" y2="250.41" stroke="rgba(255,255,255,1)" stroke-width="1.6"/>
<circle cx="567.50" cy="250.41" r="1.8" fill="rgba(255,255,255,1)"/>
<text x="564.00" y="303" fill="rgba(255,255,255,1)" font-size="11" font-weight="700" text-anchor="middle" font-family="Ableton Sans, Helvetica Neue, Helvetica, Arial">1.20k</text>
<text x="564.00" y="320" fill="rgba(255,255,255,0.84)" font-size="10" font-weight="700" text-anchor="middle" font-family="Ableton Sans, Helvetica Neue, Helvetica, Arial" letter-spacing="0.045em">CENTER</text>
<circle cx="628.00" cy="265.00" r="23.50" fill="rgba(255,255,255,0.2)"/>
<circle cx="628.00" cy="265.00" r="23.50" fill="none" stroke="rgba(255,255,255,0.48)" stroke-width="1"/>
<line x1="613.15" y1="279.85" x2="615.63" y2="277.37" stroke="rgba(255,255,255,0.84)" stroke-width="1"/>
<line x1="628.00" y1="244.00" x2="628.00" y2="247.50" stroke="rgba(255,255,255,0.84)" stroke-width="1"/>
<line x1="642.85" y1="279.85" x2="640.37" y2="277.37" stroke="rgba(255,255,255,0.84)" stroke-width="1"/>
<line x1="624.64" y1="261.07" x2="618.26" y2="253.59" stroke="rgba(255,255,255,1)" stroke-width="1.6"/>
<circle cx="618.26" cy="253.59" r="1.8" fill="rgba(255,255,255,1)"/>
<text x="628.00" y="303" fill="rgba(255,255,255,1)" font-size="11" font-weight="700" text-anchor="middle" font-family="Ableton Sans, Helvetica Neue, Helvetica, Arial">0.30</text>
<text x="628.00" y="320" fill="rgba(255,255,255,0.84)" font-size="10" font-weight="700" text-anchor="middle" font-family="Ableton Sans, Helvetica Neue, Helvetica, Arial" letter-spacing="0.045em">RESO</text>
<rect x="667.5" y="252.5" width="49" height="25" fill="none" stroke="rgba(255,255,255,0.48)" stroke-width="1"/>
<text x="674" y="269.00" fill="rgba(255,255,255,1)" font-size="10" font-weight="700" font-family="Ableton Sans, Helvetica Neue, Helvetica, Arial">LP</text>
<path d="M 703.0 263.0 L 707.0 267.0 L 711.0 263.0" fill="none" stroke="rgba(255,255,255,1)" stroke-width="1"/>
<circle cx="820.00" cy="265.00" r="23.50" fill="rgba(255,255,255,0.2)"/>
<circle cx="820.00" cy="265.00" r="23.50" fill="none" stroke="rgba(255,255,255,0.48)" stroke-width="1"/>
<line x1="805.15" y1="279.85" x2="807.63" y2="277.37" stroke="rgba(255,255,255,0.84)" stroke-width="1"/>
<line x1="820.00" y1="244.00" x2="820.00" y2="247.50" stroke="rgba(255,255,255,0.84)" stroke-width="1"/>
<line x1="834.85" y1="279.85" x2="832.37" y2="277.37" stroke="rgba(255,255,255,0.84)" stroke-width="1"/>
<line x1="820.00" y1="259.83" x2="820.00" y2="250.00" stroke="rgba(255,255,255,1)" stroke-width="1.6"/>
<circle cx="820.00" cy="250.00" r="1.8" fill="rgba(255,255,255,1)"/>
<text x="820.00" y="303" fill="rgba(255,255,255,1)" font-size="11" font-weight="700" text-anchor="middle" font-family="Ableton Sans, Helvetica Neue, Helvetica, Arial">0.0dB</text>
<text x="820.00" y="320" fill="rgba(255,255,255,0.84)" font-size="10" font-weight="700" text-anchor="middle" font-family="Ableton Sans, Helvetica Neue, Helvetica, Arial" letter-spacing="0.045em">OUTPUT</text>
<rect x="27.5" y="356.5" width="49" height="25" fill="rgba(255,255,255,1)"/>
<rect x="27.5" y="356.5" width="49" height="25" fill="none" stroke="rgba(255,255,255,1)" stroke-width="1"/>
<text x="52.00" y="373.00" fill="#000000" font-size="10" font-weight="700" text-anchor="middle" font-family="Ableton Sans, Helvetica Neue, Helvetica, Arial" letter-spacing="0.035em">DELAY</text>
<circle cx="116.00" cy="369.00" r="23.50" fill="rgba(255,255,255,0.2)"/>
<circle cx="116.00" cy="369.00" r="23.50" fill="none" stroke="rgba(255,255,255,0.48)" stroke-width="1"/>
<line x1="101.15" y1="383.85" x2="103.63" y2="381.37" stroke="rgba(255,255,255,0.84)" stroke-width="1"/>
<line x1="116.00" y1="348.00" x2="116.00" y2="351.50" stroke="rgba(255,255,255,0.84)" stroke-width="1"/>
<line x1="130.85" y1="383.85" x2="128.37" y2="381.37" stroke="rgba(255,255,255,0.84)" stroke-width="1"/>
<line x1="114.79" y1="363.97" x2="112.50" y2="354.41" stroke="rgba(255,255,255,1)" stroke-width="1.6"/>
<circle cx="112.50" cy="354.41" r="1.8" fill="rgba(255,255,255,1)"/>
<text x="116.00" y="407" fill="rgba(255,255,255,1)" font-size="11" font-weight="700" text-anchor="middle" font-family="Ableton Sans, Helvetica Neue, Helvetica, Arial">375ms</text>
<text x="116.00" y="424" fill="rgba(255,255,255,0.84)" font-size="10" font-weight="700" text-anchor="middle" font-family="Ableton Sans, Helvetica Neue, Helvetica, Arial" letter-spacing="0.045em">TIME</text>
<circle cx="180.00" cy="369.00" r="23.50" fill="rgba(255,255,255,0.2)"/>
<circle cx="180.00" cy="369.00" r="23.50" fill="none" stroke="rgba(255,255,255,0.48)" stroke-width="1"/>
<line x1="165.15" y1="383.85" x2="167.63" y2="381.37" stroke="rgba(255,255,255,0.84)" stroke-width="1"/>
<line x1="180.00" y1="348.00" x2="180.00" y2="351.50" stroke="rgba(255,255,255,0.84)" stroke-width="1"/>
<line x1="194.85" y1="383.85" x2="192.37" y2="381.37" stroke="rgba(255,255,255,0.84)" stroke-width="1"/>
<line x1="180.00" y1="363.83" x2="180.00" y2="354.00" stroke="rgba(255,255,255,1)" stroke-width="1.6"/>
<circle cx="180.00" cy="354.00" r="1.8" fill="rgba(255,255,255,1)"/>
<text x="180.00" y="407" fill="rgba(255,255,255,1)" font-size="11" font-weight="700" text-anchor="middle" font-family="Ableton Sans, Helvetica Neue, Helvetica, Arial">0.45</text>
<text x="180.00" y="424" fill="rgba(255,255,255,0.84)" font-size="10" font-weight="700" text-anchor="middle" font-family="Ableton Sans, Helvetica Neue, Helvetica, Arial" letter-spacing="0.045em">FEEDBACK</text>
<circle cx="244.00" cy="369.00" r="23.50" fill="rgba(255,255,255,0.2)"/>
<circle cx="244.00" cy="369.00" r="23.50" fill="none" stroke="rgba(255,255,255,0.48)" stroke-width="1"/>
<line x1="229.15" y1="383.85" x2="231.63" y2="381.37" stroke="rgba(255,255,255,0.84)" stroke-width="1"/>
<line x1="244.00" y1="348.00" x2="244.00" y2="351.50" stroke="rgba(255,255,255,0.84)" stroke-width="1"/>
<line x1="258.85" y1="383.85" x2="256.37" y2="381.37" stroke="rgba(255,255,255,0.84)" stroke-width="1"/>
<line x1="240.64" y1="365.07" x2="234.26" y2="357.59" stroke="rgba(255,255,255,1)" stroke-width="1.6"/>
<circle cx="234.26" cy="357.59" r="1.8" fill="rgba(255,255,255,1)"/>
<text x="244.00" y="407" fill="rgba(255,255,255,1)" font-size="11" font-weight="700" text-anchor="middle" font-family="Ableton Sans, Helvetica Neue, Helvetica, Arial">0.35</text>
<text x="244.00" y="424" fill="rgba(255,255,255,0.84)" font-size="10" font-weight="700" text-anchor="middle" font-family="Ableton Sans, Helvetica Neue, Helvetica, Arial" letter-spacing="0.045em">DAMP</text>
<circle cx="308.00" cy="369.00" r="23.50" fill="rgba(255,255,255,0.2)"/>
<circle cx="308.00" cy="369.00" r="23.50" fill="none" stroke="rgba(255,255,255,0.48)" stroke-width="1"/>
<line x1="293.15" y1="383.85" x2="295.63" y2="381.37" stroke="rgba(255,255,255,0.84)" stroke-width="1"/>
<line x1="308.00" y1="348.00" x2="308.00" y2="351.50" stroke="rgba(255,255,255,0.84)" stroke-width="1"/>
<line x1="322.85" y1="383.85" x2="320.37" y2="381.37" stroke="rgba(255,255,255,0.84)" stroke-width="1"/>
<line x1="302.89" y1="368.19" x2="293.18" y2="366.65" stroke="rgba(255,255,255,1)" stroke-width="1.6"/>
<circle cx="293.18" cy="366.65" r="1.8" fill="rgba(255,255,255,1)"/>
<text x="308.00" y="407" fill="rgba(255,255,255,1)" font-size="11" font-weight="700" text-anchor="middle" font-family="Ableton Sans, Helvetica Neue, Helvetica, Arial">0.00</text>
<text x="308.00" y="424" fill="rgba(255,255,255,0.84)" font-size="10" font-weight="700" text-anchor="middle" font-family="Ableton Sans, Helvetica Neue, Helvetica, Arial" letter-spacing="0.045em">PINGPONG</text>
<circle cx="372.00" cy="369.00" r="23.50" fill="rgba(255,255,255,0.2)"/>
<circle cx="372.00" cy="369.00" r="23.50" fill="none" stroke="rgba(255,255,255,0.48)" stroke-width="1"/>
<line x1="357.15" y1="383.85" x2="359.63" y2="381.37" stroke="rgba(255,255,255,0.84)" stroke-width="1"/>
<line x1="372.00" y1="348.00" x2="372.00" y2="351.50" stroke="rgba(255,255,255,0.84)" stroke-width="1"/>
<line x1="386.85" y1="383.85" x2="384.37" y2="381.37" stroke="rgba(255,255,255,0.84)" stroke-width="1"/>
<line x1="368.64" y1="365.07" x2="362.26" y2="357.59" stroke="rgba(255,255,255,1)" stroke-width="1.6"/>
<circle cx="362.26" cy="357.59" r="1.8" fill="rgba(255,255,255,1)"/>
<text x="372.00" y="407" fill="rgba(255,255,255,1)" font-size="11" font-weight="700" text-anchor="middle" font-family="Ableton Sans, Helvetica Neue, Helvetica, Arial">0.35</text>
<text x="372.00" y="424" fill="rgba(255,255,255,0.84)" font-size="10" font-weight="700" text-anchor="middle" font-family="Ableton Sans, Helvetica Neue, Helvetica, Arial" letter-spacing="0.045em">MIX</text>
<circle cx="500.00" cy="369.00" r="23.50" fill="rgba(255,255,255,0.2)"/>
<circle cx="500.00" cy="369.00" r="23.50" fill="none" stroke="rgba(255,255,255,0.48)" stroke-width="1"/>
<line x1="485.15" y1="383.85" x2="487.63" y2="381.37" stroke="rgba(255,255,255,0.84)" stroke-width="1"/>
<line x1="500.00" y1="348.00" x2="500.00" y2="351.50" stroke="rgba(255,255,255,0.84)" stroke-width="1"/>
<line x1="514.85" y1="383.85" x2="512.37" y2="381.37" stroke="rgba(255,255,255,0.84)" stroke-width="1"/>
<line x1="502.35" y1="364.39" x2="506.81" y2="355.63" stroke="rgba(255,255,255,1)" stroke-width="1.6"/>
<circle cx="506.81" cy="355.63" r="1.8" fill="rgba(255,255,255,1)"/>
<text x="500.00" y="407" fill="rgba(255,255,255,1)" font-size="11" font-weight="700" text-anchor="middle" font-family="Ableton Sans, Helvetica Neue, Helvetica, Arial">0.55</text>
<text x="500.00" y="424" fill="rgba(255,255,255,0.84)" font-size="10" font-weight="700" text-anchor="middle" font-family="Ableton Sans, Helvetica Neue, Helvetica, Arial" letter-spacing="0.045em">MIX</text>
<circle cx="564.00" cy="369.00" r="23.50" fill="rgba(255,255,255,0.2)"/>
<circle cx="564.00" cy="369.00" r="23.50" fill="none" stroke="rgba(255,255,255,0.48)" stroke-width="1"/>
<line x1="549.15" y1="383.85" x2="551.63" y2="381.37" stroke="rgba(255,255,255,0.84)" stroke-width="1"/>
<line x1="564.00" y1="348.00" x2="564.00" y2="351.50" stroke="rgba(255,255,255,0.84)" stroke-width="1"/>
<line x1="578.85" y1="383.85" x2="576.37" y2="381.37" stroke="rgba(255,255,255,0.84)" stroke-width="1"/>
<line x1="568.18" y1="365.96" x2="576.14" y2="360.18" stroke="rgba(255,255,255,1)" stroke-width="1.6"/>
<circle cx="576.14" cy="360.18" r="1.8" fill="rgba(255,255,255,1)"/>
<text x="564.00" y="407" fill="rgba(255,255,255,1)" font-size="11" font-weight="700" text-anchor="middle" font-family="Ableton Sans, Helvetica Neue, Helvetica, Arial">0.70</text>
<text x="564.00" y="424" fill="rgba(255,255,255,0.84)" font-size="10" font-weight="700" text-anchor="middle" font-family="Ableton Sans, Helvetica Neue, Helvetica, Arial" letter-spacing="0.045em">SIZE</text>
<circle cx="628.00" cy="369.00" r="23.50" fill="rgba(255,255,255,0.2)"/>
<circle cx="628.00" cy="369.00" r="23.50" fill="none" stroke="rgba(255,255,255,0.48)" stroke-width="1"/>
<line x1="613.15" y1="383.85" x2="615.63" y2="381.37" stroke="rgba(255,255,255,0.84)" stroke-width="1"/>
<line x1="628.00" y1="348.00" x2="628.00" y2="351.50" stroke="rgba(255,255,255,0.84)" stroke-width="1"/>
<line x1="642.85" y1="383.85" x2="640.37" y2="381.37" stroke="rgba(255,255,255,0.84)" stroke-width="1"/>
<line x1="633.11" y1="368.19" x2="642.82" y2="366.65" stroke="rgba(255,255,255,1)" stroke-width="1.6"/>
<circle cx="642.82" cy="366.65" r="1.8" fill="rgba(255,255,255,1)"/>
<text x="628.00" y="407" fill="rgba(255,255,255,1)" font-size="11" font-weight="700" text-anchor="middle" font-family="Ableton Sans, Helvetica Neue, Helvetica, Arial">0.80</text>
<text x="628.00" y="424" fill="rgba(255,255,255,0.84)" font-size="10" font-weight="700" text-anchor="middle" font-family="Ableton Sans, Helvetica Neue, Helvetica, Arial" letter-spacing="0.045em">TAIL</text>
<circle cx="692.00" cy="369.00" r="23.50" fill="rgba(255,255,255,0.2)"/>
<circle cx="692.00" cy="369.00" r="23.50" fill="none" stroke="rgba(255,255,255,0.48)" stroke-width="1"/>
<line x1="677.15" y1="383.85" x2="679.63" y2="381.37" stroke="rgba(255,255,255,0.84)" stroke-width="1"/>
<line x1="692.00" y1="348.00" x2="692.00" y2="351.50" stroke="rgba(255,255,255,0.84)" stroke-width="1"/>
<line x1="706.85" y1="383.85" x2="704.37" y2="381.37" stroke="rgba(255,255,255,0.84)" stroke-width="1"/>
<line x1="689.65" y1="364.39" x2="685.19" y2="355.63" stroke="rgba(255,255,255,1)" stroke-width="1.6"/>
<circle cx="685.19" cy="355.63" r="1.8" fill="rgba(255,255,255,1)"/>
<text x="692.00" y="407" fill="rgba(255,255,255,1)" font-size="11" font-weight="700" text-anchor="middle" font-family="Ableton Sans, Helvetica Neue, Helvetica, Arial">0.40</text>
<text x="692.00" y="424" fill="rgba(255,255,255,0.84)" font-size="10" font-weight="700" text-anchor="middle" font-family="Ableton Sans, Helvetica Neue, Helvetica, Arial" letter-spacing="0.045em">DAMP</text>
<circle cx="756.00" cy="369.00" r="23.50" fill="rgba(255,255,255,0.2)"/>
<circle cx="756.00" cy="369.00" r="23.50" fill="none" stroke="rgba(255,255,255,0.48)" stroke-width="1"/>
<line x1="741.15" y1="383.85" x2="743.63" y2="381.37" stroke="rgba(255,255,255,0.84)" stroke-width="1"/>
<line x1="756.00" y1="348.00" x2="756.00" y2="351.50" stroke="rgba(255,255,255,0.84)" stroke-width="1"/>
<line x1="770.85" y1="383.85" x2="768.37" y2="381.37" stroke="rgba(255,255,255,0.84)" stroke-width="1"/>
<line x1="760.18" y1="365.96" x2="768.14" y2="360.18" stroke="rgba(255,255,255,1)" stroke-width="1.6"/>
<circle cx="768.14" cy="360.18" r="1.8" fill="rgba(255,255,255,1)"/>
<text x="756.00" y="407" fill="rgba(255,255,255,1)" font-size="11" font-weight="700" text-anchor="middle" font-family="Ableton Sans, Helvetica Neue, Helvetica, Arial">0.70</text>
<text x="756.00" y="424" fill="rgba(255,255,255,0.84)" font-size="10" font-weight="700" text-anchor="middle" font-family="Ableton Sans, Helvetica Neue, Helvetica, Arial" letter-spacing="0.045em">DIFFUSE</text>
</svg>